P2
50 50
255
32 34 34 33 33 32 31 31 31 34 34 35 35 35 35 35 35 37 33 31 31 33 35 34 33 31 31 31 31 31 32 33 33 33 33 33 31 31 31 31 31 30 29 29 30 31 31 31 29 32 
31 33 33 32 31 31 30 29 29 31 31 32 33 33 33 33 33 36 32 28 29 33 36 35 32 34 33 33 32 33 33 35 35 33 32 31 30 31 33 33 33 30 30 31 32 33 33 32 31 31 
33 33 33 33 31 30 29 30 31 34 31 33 38 38 32 30 32 42 38 37 35 29 22 20 21 22 15 12 19 27 30 29 30 42 30 25 31 34 29 28 31 31 30 30 29 28 28 28 28 29 
35 35 35 35 34 33 32 33 34 33 32 33 37 38 36 35 35 30 27 24 21 20 28 52 81 79 80 76 56 32 19 19 24 34 32 31 32 32 32 30 28 31 30 30 30 29 29 29 29 30 
35 36 37 37 35 34 33 34 35 33 35 37 37 38 39 36 33 31 23 21 28 51 86 128 159 151 156 151 127 94 63 38 26 24 30 33 32 32 34 32 28 31 31 30 30 30 30 30 30 30 
33 35 35 35 34 33 32 33 34 35 39 42 38 37 37 33 29 29 33 47 81 130 166 172 165 148 143 133 128 133 118 71 38 19 23 29 33 34 33 32 32 31 31 32 32 32 32 32 32 29 
32 33 34 34 33 32 31 33 34 33 38 41 38 35 35 34 33 32 58 107 149 163 161 158 159 159 161 146 120 107 104 96 84 28 23 27 38 40 30 28 35 31 32 32 33 33 32 32 32 29 
33 33 34 35 33 33 33 33 35 31 33 37 38 34 34 43 55 76 104 143 163 165 166 170 172 166 174 168 143 120 114 118 124 53 34 30 41 44 30 27 35 31 32 33 33 33 32 32 31 31 
33 33 34 34 33 33 33 34 35 34 32 33 36 33 34 57 94 125 139 153 165 179 192 190 179 146 143 144 146 136 121 111 110 79 49 34 37 41 34 30 31 32 32 33 34 33 32 30 29 32 
33 32 33 33 33 31 31 33 34 40 33 33 35 31 33 66 125 103 138 175 185 177 174 174 174 177 166 161 153 130 105 103 114 88 58 34 31 37 39 34 28 32 32 33 34 33 31 30 28 30 
31 31 32 32 32 32 31 31 30 43 35 29 45 28 35 110 99 133 166 163 158 181 177 161 174 170 165 161 153 132 110 97 96 85 70 50 27 28 37 30 32 36 33 32 33 32 28 27 28 28 
33 33 33 33 33 33 32 31 31 35 36 32 43 33 50 132 108 138 165 161 154 174 172 159 172 177 170 163 149 124 101 91 91 73 60 42 23 26 37 31 34 34 32 31 32 31 28 27 29 28 
33 32 32 33 33 32 31 31 31 33 38 35 39 31 52 122 99 144 166 165 158 168 168 159 166 153 144 135 118 95 75 68 70 65 51 36 20 25 36 30 35 32 30 30 31 31 28 28 30 28 
31 30 30 31 31 30 29 29 29 34 36 35 37 29 45 101 100 133 149 156 154 158 156 149 146 124 118 111 99 79 63 58 61 60 47 34 21 27 37 29 32 30 28 28 30 30 28 28 30 29 
31 30 30 31 31 30 29 29 29 33 31 33 38 31 40 90 122 114 125 143 149 144 143 135 121 92 89 87 84 72 59 53 53 51 40 30 21 29 37 27 30 30 28 28 30 31 29 29 31 30 
31 32 32 33 33 32 31 31 31 35 29 32 37 31 35 70 115 108 118 144 158 148 146 141 120 89 87 91 97 94 80 67 61 44 32 25 20 29 37 27 30 30 28 28 31 31 30 30 32 30 
31 33 33 33 33 33 32 31 31 36 31 34 33 32 41 62 92 112 117 148 165 151 154 156 128 108 108 117 133 136 117 91 76 48 33 24 19 28 36 27 32 31 29 30 32 32 30 30 32 31 
30 31 32 32 32 32 31 31 30 31 31 35 33 39 60 76 94 108 110 141 158 141 149 156 128 87 86 95 114 121 100 70 52 57 38 26 19 27 35 27 32 32 30 30 32 32 30 30 32 31 
29 31 31 31 31 31 30 29 29 29 37 20 46 54 122 114 81 135 120 153 110 63 55 42 47 76 72 74 69 29 12 25 34 65 44 30 31 36 35 31 30 31 32 33 33 32 30 28 27 31 
29 30 31 31 31 31 30 29 29 37 45 30 31 55 156 95 97 111 127 117 83 62 35 21 39 54 52 35 27 21 21 36 37 41 35 31 32 33 32 30 29 32 33 33 33 31 29 27 26 28 
29 30 30 30 31 30 29 29 29 31 26 32 27 44 95 39 121 127 132 74 92 168 99 32 29 65 79 42 24 29 38 46 40 26 31 35 34 31 31 31 30 32 33 33 33 31 29 28 27 28 
31 30 31 31 31 31 31 30 30 32 25 42 37 43 86 51 125 120 143 76 66 64 17 10 24 101 132 63 25 25 23 24 29 32 40 42 35 31 33 34 31 31 31 31 31 31 31 29 29 30 
33 31 32 32 33 33 33 32 32 33 37 41 29 37 138 151 99 143 194 175 133 49 11 29 71 154 168 71 29 27 19 20 35 56 55 45 33 30 34 35 31 29 29 30 31 31 32 32 32 30 
34 32 32 33 33 33 33 33 33 30 33 29 29 30 99 190 118 125 143 175 172 97 75 112 122 174 168 80 55 69 52 43 57 80 63 42 31 29 33 33 29 29 29 29 30 31 32 33 33 29 
33 31 32 33 33 33 33 33 33 35 31 30 43 34 42 108 136 127 138 170 125 79 105 154 179 161 151 79 64 84 72 64 69 85 59 38 31 31 33 31 30 30 30 30 30 31 31 31 32 28 
33 31 31 32 33 33 33 33 33 32 32 28 29 29 24 44 70 108 127 161 110 99 151 156 165 194 175 84 49 54 59 77 91 80 53 35 33 35 33 31 32 32 32 31 31 30 30 30 30 29 
31 29 29 31 31 32 33 33 33 32 28 38 26 31 29 17 57 105 78 122 108 108 107 78 181 208 153 124 84 41 44 70 71 51 37 28 30 35 35 34 33 33 28 29 35 35 29 29 34 32 
31 30 31 31 31 31 31 31 31 29 27 36 31 34 34 28 61 92 67 84 122 70 51 121 174 192 133 108 87 48 31 37 42 35 28 26 28 31 31 31 31 32 29 31 37 38 32 30 33 31 
31 32 32 31 31 31 31 31 30 29 30 33 33 31 30 31 40 90 66 49 75 54 48 108 87 87 48 38 53 54 34 27 35 28 27 29 32 33 31 31 31 31 29 31 38 38 32 30 32 31 
33 33 33 32 32 32 32 32 33 32 31 30 35 31 28 31 22 80 91 69 54 90 130 105 78 61 30 19 35 60 46 31 34 31 31 32 35 36 35 32 31 30 28 29 33 33 31 29 31 32 
34 33 33 32 32 33 34 35 35 32 30 27 35 35 33 33 22 51 87 94 76 97 128 121 114 95 65 41 41 49 39 28 28 31 29 28 30 34 36 33 29 32 30 29 29 30 29 31 33 33 
35 33 32 32 32 33 34 36 37 34 30 30 32 35 33 27 29 79 72 68 100 61 43 95 77 51 45 37 28 22 22 27 32 29 28 27 29 34 38 36 31 34 32 30 29 29 31 33 35 33 
34 33 32 31 31 31 33 34 35 35 31 37 29 31 30 23 52 168 86 64 89 55 35 60 61 27 20 21 20 14 17 27 28 27 30 32 32 35 38 38 33 33 32 31 29 29 31 33 34 32 
33 33 33 31 30 29 30 31 32 31 29 42 29 33 36 31 101 166 84 78 52 59 65 38 95 78 41 34 35 23 21 21 11 26 32 36 34 33 33 33 30 29 30 30 29 29 31 31 31 31 
33 34 32 30 32 35 36 33 30 27 27 28 38 34 16 43 180 165 46 141 54 54 65 33 67 43 17 20 23 25 35 21 6 24 39 30 24 38 32 22 36 27 28 30 30 30 29 29 30 31 
35 33 35 36 34 29 27 29 32 34 26 36 36 20 33 109 189 145 72 114 66 43 62 59 55 33 27 34 25 21 34 27 14 23 40 34 26 35 35 25 26 30 29 28 28 28 28 30 32 33 
35 38 32 28 30 38 41 36 31 31 39 43 28 34 117 195 140 137 107 91 114 64 60 72 32 16 13 14 11 21 39 22 8 24 43 51 36 29 32 32 28 30 28 27 26 27 29 32 34 32 
34 31 34 37 36 31 28 26 26 37 39 19 21 95 205 199 162 155 127 69 123 113 67 69 36 18 10 10 17 40 45 16 8 29 47 71 55 27 25 35 35 34 33 32 31 31 31 31 31 29 
32 32 31 31 35 39 39 33 28 25 17 23 94 221 199 150 187 169 135 62 66 120 90 76 65 26 18 28 43 42 20 9 20 39 44 71 74 39 26 30 28 34 33 33 34 34 32 29 26 28 
31 31 30 28 28 30 31 31 30 33 39 114 227 213 170 169 167 151 150 95 47 93 107 68 57 27 19 32 39 23 9 9 33 49 41 60 82 64 43 32 21 22 22 23 26 30 32 31 29 31 
28 24 36 43 31 16 15 35 66 123 156 213 189 132 160 209 185 143 162 140 77 57 90 56 42 34 26 36 30 18 23 33 43 54 51 63 82 83 73 58 42 32 28 23 23 26 30 31 31 33 
25 40 27 19 28 64 123 172 195 185 217 191 176 203 185 153 167 160 156 145 116 32 65 59 56 35 38 52 26 13 36 55 43 53 66 78 81 84 95 100 95 78 61 42 31 27 26 27 27 33 
45 33 30 52 129 213 219 191 181 160 169 191 169 167 187 165 160 165 180 137 151 47 47 55 52 64 69 41 32 56 60 49 65 66 77 85 85 87 94 98 95 111 118 127 114 66 30 22 27 30 
23 23 84 187 217 195 181 170 153 153 163 189 165 158 180 169 176 162 178 151 158 71 49 78 81 91 82 69 66 65 61 62 71 71 79 85 83 84 89 91 89 79 102 133 155 148 111 66 40 23 
28 104 189 236 178 140 165 189 176 150 162 187 165 156 178 176 191 156 170 167 162 109 49 102 114 109 89 97 97 66 57 71 73 78 83 85 82 79 82 83 81 89 110 124 132 160 185 156 109 36 
97 203 197 178 165 176 193 181 155 153 158 183 169 165 183 176 189 160 163 170 156 145 49 97 113 106 104 103 87 65 63 75 79 87 87 84 79 77 77 77 77 95 118 126 114 123 158 178 169 91 
204 183 169 167 185 197 185 167 160 151 150 172 169 174 187 165 165 172 162 170 150 165 58 73 95 118 143 103 66 76 85 82 93 94 89 83 79 77 76 77 79 75 102 135 150 141 132 135 141 154 
212 169 172 169 162 162 172 181 183 145 138 163 165 176 183 151 145 187 165 172 151 169 87 54 94 145 165 100 61 91 104 87 98 99 90 82 81 82 81 84 88 98 98 116 143 148 132 130 143 163 
177 160 160 160 167 183 191 174 151 138 135 163 169 174 176 148 148 185 167 172 156 155 127 47 117 172 141 93 79 103 110 95 97 102 89 82 83 87 88 93 100 132 109 100 113 127 133 145 163 146 
179 191 156 140 160 180 176 167 169 137 137 170 174 174 174 153 162 176 162 169 156 141 160 46 145 191 113 89 109 114 111 109 98 103 89 81 84 90 93 100 109 109 106 113 129 138 137 132 132 141 
